<svg xmlns="http://www.w3.org/2000/svg" xmlns:xlink="http://www.w3.org/1999/xlink" version="1.1" x="0px" y="0px" viewBox="0 0 72 90" enable-background="new 0 0 72 72" xml:space="preserve"><path fill="#aba" d="M54.8,1.6C53.7,6.5,50.3,15.2,39.4,22c-0.6,0.4-1.3,0.3-1.8-0.2C22.2,6.4,7.6,11.1,1.3,14.5  c-1.2,0.6-0.9,2.4,0.4,2.6c4.9,1.1,13.6,4.5,20.4,15.4c0.4,0.6,0.3,1.3-0.2,1.8c-15.4,15.5-10.6,30-7.3,36.4  c0.6,1.2,2.4,0.9,2.6-0.4c1.1-4.9,4.5-13.6,15.4-20.4c0.6-0.4,1.3-0.3,1.8,0.2c15.5,15.4,30,10.6,36.4,7.3c1.2-0.6,0.9-2.4-0.4-2.6  c-4.9-1.1-13.6-4.5-20.4-15.4c-0.4-0.6-0.3-1.3,0.2-1.8c15.4-15.5,10.6-30,7.3-36.4C56.9,0.1,55.1,0.3,54.8,1.6z M41.7,40.1  c-2.8,4-8.6,4-11.5,0c-1.7-2.4-1.7-5.7,0-8.1c2.8-4,8.6-4,11.5,0C43.5,34.3,43.5,37.7,41.7,40.1z"/></svg>